<mxfile host="app.diagrams.net" modified="2023-10-05T08:57:09.776Z" agent="Mozilla/5.0 (Windows NT 10.0; Win64; x64) AppleWebKit/537.36 (KHTML, like Gecko) Chrome/116.0.0.0 Safari/537.36 OPR/102.0.0.0 (Edition std-1)" etag="uz0wfrwnFP2TYzdSPsBw" version="21.8.0" type="github">
  <diagram name="Page-1" id="o67EySk3LSE3K6hvLNPV">
    <mxGraphModel dx="2017" dy="649" grid="1" gridSize="10" guides="1" tooltips="1" connect="1" arrows="1" fold="1" page="1" pageScale="1" pageWidth="827" pageHeight="1169" math="0" shadow="0">
      <root>
        <mxCell id="0" />
        <mxCell id="1" parent="0" />
        <mxCell id="iaIAoVfE06Dp4TXyiZUW-13" style="edgeStyle=orthogonalEdgeStyle;rounded=0;orthogonalLoop=1;jettySize=auto;html=1;entryX=1;entryY=0.5;entryDx=0;entryDy=0;endArrow=none;endFill=0;" edge="1" parent="1" source="iaIAoVfE06Dp4TXyiZUW-2" target="iaIAoVfE06Dp4TXyiZUW-11">
          <mxGeometry relative="1" as="geometry" />
        </mxCell>
        <mxCell id="iaIAoVfE06Dp4TXyiZUW-28" style="edgeStyle=orthogonalEdgeStyle;rounded=0;orthogonalLoop=1;jettySize=auto;html=1;exitX=1;exitY=0;exitDx=0;exitDy=0;entryX=0;entryY=0.5;entryDx=0;entryDy=0;endArrow=none;endFill=0;" edge="1" parent="1" source="iaIAoVfE06Dp4TXyiZUW-2" target="iaIAoVfE06Dp4TXyiZUW-9">
          <mxGeometry relative="1" as="geometry">
            <Array as="points">
              <mxPoint x="680" y="370" />
              <mxPoint x="680" y="270" />
            </Array>
          </mxGeometry>
        </mxCell>
        <mxCell id="iaIAoVfE06Dp4TXyiZUW-33" style="edgeStyle=orthogonalEdgeStyle;rounded=0;orthogonalLoop=1;jettySize=auto;html=1;exitX=1;exitY=1;exitDx=0;exitDy=0;endArrow=none;endFill=0;entryX=0;entryY=0.5;entryDx=0;entryDy=0;" edge="1" parent="1" source="iaIAoVfE06Dp4TXyiZUW-2" target="iaIAoVfE06Dp4TXyiZUW-10">
          <mxGeometry relative="1" as="geometry">
            <mxPoint x="740" y="530" as="targetPoint" />
            <Array as="points">
              <mxPoint x="680" y="410" />
              <mxPoint x="680" y="510" />
            </Array>
          </mxGeometry>
        </mxCell>
        <mxCell id="iaIAoVfE06Dp4TXyiZUW-2" value="Curso" style="whiteSpace=wrap;html=1;align=center;fillColor=#ffe6cc;strokeColor=#d79b00;" vertex="1" parent="1">
          <mxGeometry x="500" y="370" width="100" height="40" as="geometry" />
        </mxCell>
        <mxCell id="iaIAoVfE06Dp4TXyiZUW-35" style="edgeStyle=orthogonalEdgeStyle;rounded=0;orthogonalLoop=1;jettySize=auto;html=1;entryX=0;entryY=0.5;entryDx=0;entryDy=0;endArrow=none;endFill=0;" edge="1" parent="1" source="iaIAoVfE06Dp4TXyiZUW-3" target="iaIAoVfE06Dp4TXyiZUW-8">
          <mxGeometry relative="1" as="geometry">
            <Array as="points">
              <mxPoint x="210" y="540" />
            </Array>
          </mxGeometry>
        </mxCell>
        <mxCell id="iaIAoVfE06Dp4TXyiZUW-3" value="Estudiante" style="whiteSpace=wrap;html=1;align=center;fillColor=#ffe6cc;strokeColor=#d79b00;" vertex="1" parent="1">
          <mxGeometry x="160" y="370" width="100" height="40" as="geometry" />
        </mxCell>
        <mxCell id="iaIAoVfE06Dp4TXyiZUW-4" value="Profesor" style="whiteSpace=wrap;html=1;align=center;fillColor=#ffe6cc;strokeColor=#d79b00;" vertex="1" parent="1">
          <mxGeometry x="500" y="170" width="100" height="40" as="geometry" />
        </mxCell>
        <mxCell id="iaIAoVfE06Dp4TXyiZUW-5" value="Asistencia" style="whiteSpace=wrap;html=1;align=center;fillColor=#ffe6cc;strokeColor=#d79b00;" vertex="1" parent="1">
          <mxGeometry x="160" y="170" width="100" height="40" as="geometry" />
        </mxCell>
        <mxCell id="iaIAoVfE06Dp4TXyiZUW-6" value="Actividades extracurriculares" style="whiteSpace=wrap;html=1;align=center;fillColor=#ffe6cc;strokeColor=#d79b00;" vertex="1" parent="1">
          <mxGeometry x="-180" y="370" width="100" height="40" as="geometry" />
        </mxCell>
        <mxCell id="iaIAoVfE06Dp4TXyiZUW-7" value="Materias" style="whiteSpace=wrap;html=1;align=center;fillColor=#ffe6cc;strokeColor=#d79b00;" vertex="1" parent="1">
          <mxGeometry x="500" y="610" width="100" height="40" as="geometry" />
        </mxCell>
        <mxCell id="iaIAoVfE06Dp4TXyiZUW-38" style="edgeStyle=orthogonalEdgeStyle;rounded=0;orthogonalLoop=1;jettySize=auto;html=1;entryX=0;entryY=0.5;entryDx=0;entryDy=0;endArrow=none;endFill=0;" edge="1" parent="1" source="iaIAoVfE06Dp4TXyiZUW-8" target="iaIAoVfE06Dp4TXyiZUW-7">
          <mxGeometry relative="1" as="geometry">
            <Array as="points">
              <mxPoint x="340" y="630" />
            </Array>
          </mxGeometry>
        </mxCell>
        <mxCell id="iaIAoVfE06Dp4TXyiZUW-8" value="Calificaciones" style="whiteSpace=wrap;html=1;align=center;fillColor=#ffe6cc;strokeColor=#d79b00;" vertex="1" parent="1">
          <mxGeometry x="290" y="520" width="100" height="40" as="geometry" />
        </mxCell>
        <mxCell id="iaIAoVfE06Dp4TXyiZUW-9" value="Horario" style="whiteSpace=wrap;html=1;align=center;fillColor=#ffe6cc;strokeColor=#d79b00;" vertex="1" parent="1">
          <mxGeometry x="760" y="250" width="100" height="40" as="geometry" />
        </mxCell>
        <mxCell id="iaIAoVfE06Dp4TXyiZUW-10" value="Aula" style="whiteSpace=wrap;html=1;align=center;fillColor=#ffe6cc;strokeColor=#d79b00;" vertex="1" parent="1">
          <mxGeometry x="760" y="490" width="100" height="40" as="geometry" />
        </mxCell>
        <mxCell id="iaIAoVfE06Dp4TXyiZUW-12" style="edgeStyle=orthogonalEdgeStyle;rounded=0;orthogonalLoop=1;jettySize=auto;html=1;entryX=1;entryY=0.5;entryDx=0;entryDy=0;endArrow=none;endFill=0;" edge="1" parent="1" source="iaIAoVfE06Dp4TXyiZUW-11" target="iaIAoVfE06Dp4TXyiZUW-3">
          <mxGeometry relative="1" as="geometry" />
        </mxCell>
        <mxCell id="iaIAoVfE06Dp4TXyiZUW-11" value="Matriculado" style="shape=rhombus;perimeter=rhombusPerimeter;whiteSpace=wrap;html=1;align=center;fillColor=#dae8fc;strokeColor=#6c8ebf;" vertex="1" parent="1">
          <mxGeometry x="320" y="360" width="120" height="60" as="geometry" />
        </mxCell>
        <mxCell id="iaIAoVfE06Dp4TXyiZUW-15" style="edgeStyle=orthogonalEdgeStyle;rounded=0;orthogonalLoop=1;jettySize=auto;html=1;entryX=0;entryY=0.5;entryDx=0;entryDy=0;endArrow=none;endFill=0;" edge="1" parent="1" source="iaIAoVfE06Dp4TXyiZUW-14" target="iaIAoVfE06Dp4TXyiZUW-3">
          <mxGeometry relative="1" as="geometry" />
        </mxCell>
        <mxCell id="iaIAoVfE06Dp4TXyiZUW-16" style="edgeStyle=orthogonalEdgeStyle;rounded=0;orthogonalLoop=1;jettySize=auto;html=1;exitX=0;exitY=0.5;exitDx=0;exitDy=0;entryX=1;entryY=0.5;entryDx=0;entryDy=0;endArrow=none;endFill=0;" edge="1" parent="1" source="iaIAoVfE06Dp4TXyiZUW-14" target="iaIAoVfE06Dp4TXyiZUW-6">
          <mxGeometry relative="1" as="geometry" />
        </mxCell>
        <mxCell id="iaIAoVfE06Dp4TXyiZUW-14" value="Realiza" style="shape=rhombus;perimeter=rhombusPerimeter;whiteSpace=wrap;html=1;align=center;fillColor=#dae8fc;strokeColor=#6c8ebf;" vertex="1" parent="1">
          <mxGeometry x="-20" y="360" width="120" height="60" as="geometry" />
        </mxCell>
        <mxCell id="iaIAoVfE06Dp4TXyiZUW-18" style="edgeStyle=orthogonalEdgeStyle;rounded=0;orthogonalLoop=1;jettySize=auto;html=1;entryX=0.5;entryY=1;entryDx=0;entryDy=0;endArrow=none;endFill=0;" edge="1" parent="1" source="iaIAoVfE06Dp4TXyiZUW-17" target="iaIAoVfE06Dp4TXyiZUW-5">
          <mxGeometry relative="1" as="geometry" />
        </mxCell>
        <mxCell id="iaIAoVfE06Dp4TXyiZUW-19" style="edgeStyle=orthogonalEdgeStyle;rounded=0;orthogonalLoop=1;jettySize=auto;html=1;exitX=0.5;exitY=1;exitDx=0;exitDy=0;endArrow=none;endFill=0;" edge="1" parent="1" source="iaIAoVfE06Dp4TXyiZUW-17" target="iaIAoVfE06Dp4TXyiZUW-3">
          <mxGeometry relative="1" as="geometry" />
        </mxCell>
        <mxCell id="iaIAoVfE06Dp4TXyiZUW-17" value="Tiene" style="shape=rhombus;perimeter=rhombusPerimeter;whiteSpace=wrap;html=1;align=center;fillColor=#dae8fc;strokeColor=#6c8ebf;" vertex="1" parent="1">
          <mxGeometry x="150" y="260" width="120" height="60" as="geometry" />
        </mxCell>
        <mxCell id="iaIAoVfE06Dp4TXyiZUW-21" style="edgeStyle=orthogonalEdgeStyle;rounded=0;orthogonalLoop=1;jettySize=auto;html=1;entryX=0.5;entryY=1;entryDx=0;entryDy=0;endArrow=none;endFill=0;" edge="1" parent="1" source="iaIAoVfE06Dp4TXyiZUW-20" target="iaIAoVfE06Dp4TXyiZUW-2">
          <mxGeometry relative="1" as="geometry" />
        </mxCell>
        <mxCell id="iaIAoVfE06Dp4TXyiZUW-22" style="edgeStyle=orthogonalEdgeStyle;rounded=0;orthogonalLoop=1;jettySize=auto;html=1;entryX=0.5;entryY=0;entryDx=0;entryDy=0;endArrow=none;endFill=0;" edge="1" parent="1" source="iaIAoVfE06Dp4TXyiZUW-20" target="iaIAoVfE06Dp4TXyiZUW-7">
          <mxGeometry relative="1" as="geometry" />
        </mxCell>
        <mxCell id="iaIAoVfE06Dp4TXyiZUW-20" value="Tiene" style="shape=rhombus;perimeter=rhombusPerimeter;whiteSpace=wrap;html=1;align=center;fillColor=#dae8fc;strokeColor=#6c8ebf;" vertex="1" parent="1">
          <mxGeometry x="490" y="480" width="120" height="60" as="geometry" />
        </mxCell>
        <mxCell id="iaIAoVfE06Dp4TXyiZUW-24" style="edgeStyle=orthogonalEdgeStyle;rounded=0;orthogonalLoop=1;jettySize=auto;html=1;exitX=0.5;exitY=0;exitDx=0;exitDy=0;entryX=0.5;entryY=1;entryDx=0;entryDy=0;endArrow=none;endFill=0;" edge="1" parent="1" source="iaIAoVfE06Dp4TXyiZUW-23" target="iaIAoVfE06Dp4TXyiZUW-4">
          <mxGeometry relative="1" as="geometry" />
        </mxCell>
        <mxCell id="iaIAoVfE06Dp4TXyiZUW-25" value="" style="edgeStyle=orthogonalEdgeStyle;rounded=0;orthogonalLoop=1;jettySize=auto;html=1;endArrow=none;endFill=0;" edge="1" parent="1" source="iaIAoVfE06Dp4TXyiZUW-23" target="iaIAoVfE06Dp4TXyiZUW-2">
          <mxGeometry relative="1" as="geometry" />
        </mxCell>
        <mxCell id="iaIAoVfE06Dp4TXyiZUW-23" value="Imparte" style="shape=rhombus;perimeter=rhombusPerimeter;whiteSpace=wrap;html=1;align=center;fillColor=#dae8fc;strokeColor=#6c8ebf;" vertex="1" parent="1">
          <mxGeometry x="490" y="260" width="120" height="60" as="geometry" />
        </mxCell>
        <mxCell id="iaIAoVfE06Dp4TXyiZUW-32" value="Tiene" style="shape=rhombus;perimeter=rhombusPerimeter;whiteSpace=wrap;html=1;align=center;fillColor=#dae8fc;strokeColor=#6c8ebf;" vertex="1" parent="1">
          <mxGeometry x="620" y="290" width="120" height="60" as="geometry" />
        </mxCell>
        <mxCell id="iaIAoVfE06Dp4TXyiZUW-34" value="Se imparte" style="shape=rhombus;perimeter=rhombusPerimeter;whiteSpace=wrap;html=1;align=center;fillColor=#dae8fc;strokeColor=#6c8ebf;" vertex="1" parent="1">
          <mxGeometry x="620" y="430" width="120" height="60" as="geometry" />
        </mxCell>
        <mxCell id="iaIAoVfE06Dp4TXyiZUW-36" value="Tiene" style="shape=rhombus;perimeter=rhombusPerimeter;whiteSpace=wrap;html=1;align=center;fillColor=#dae8fc;strokeColor=#6c8ebf;" vertex="1" parent="1">
          <mxGeometry x="150" y="450" width="120" height="60" as="geometry" />
        </mxCell>
        <mxCell id="iaIAoVfE06Dp4TXyiZUW-37" value="Tiene" style="shape=rhombus;perimeter=rhombusPerimeter;whiteSpace=wrap;html=1;align=center;fillColor=#dae8fc;strokeColor=#6c8ebf;" vertex="1" parent="1">
          <mxGeometry x="280" y="600" width="120" height="60" as="geometry" />
        </mxCell>
      </root>
    </mxGraphModel>
  </diagram>
</mxfile>
